<svg xmlns="http://www.w3.org/2000/svg" viewBox="0 0 720 480" role="img" aria-labelledby="title desc">
<title id="title">Hệ sinh thái tài khoản MyVTC</title><desc id="desc">Minh họa phẳng nhiều màu về một tài khoản kết nối nhiều dịch vụ</desc>
<defs><filter id="s" x="-20%" y="-20%" width="140%" height="140%"><feDropShadow dx="0" dy="14" stdDeviation="16" flood-color="#1f2937" flood-opacity=".12"/></filter></defs>
<circle cx="360" cy="240" r="184" fill="#f8fbff"/><circle cx="360" cy="240" r="146" fill="none" stroke="#dbeafe" stroke-width="2" stroke-dasharray="8 12"/>
<g filter="url(#s)"><rect x="248" y="122" width="224" height="236" rx="38" fill="#fff"/><circle cx="360" cy="196" r="46" fill="#e8f0fe"/><circle cx="360" cy="184" r="17" fill="#4285f4"/><path d="M323 229c10-25 64-25 74 0v13h-74z" fill="#4285f4"/><rect x="291" y="273" width="138" height="16" rx="8" fill="#e8eaed"/><rect x="315" y="302" width="90" height="13" rx="6.5" fill="#e8eaed"/></g>
<g filter="url(#s)"><rect x="92" y="112" width="112" height="88" rx="24" fill="#fff"/><circle cx="126" cy="156" r="20" fill="#e8f0fe"/><path d="M118 157l7 7 14-17" fill="none" stroke="#4285f4" stroke-width="7" stroke-linecap="round" stroke-linejoin="round"/><rect x="154" y="139" width="28" height="10" rx="5" fill="#34a853"/><rect x="154" y="158" width="20" height="8" rx="4" fill="#e8eaed"/></g>
<g filter="url(#s)"><rect x="516" y="100" width="116" height="94" rx="24" fill="#fff"/><rect x="545" y="126" width="58" height="42" rx="12" fill="#fce8e6"/><path d="M553 139h42M553 151h27" stroke="#ea4335" stroke-width="7" stroke-linecap="round"/></g>
<g filter="url(#s)"><rect x="86" y="294" width="126" height="94" rx="24" fill="#fff"/><circle cx="125" cy="341" r="22" fill="#fef7e0"/><path d="M125 324v34M108 341h34" stroke="#fbbc04" stroke-width="8" stroke-linecap="round"/><rect x="158" y="325" width="29" height="10" rx="5" fill="#4285f4"/><rect x="158" y="345" width="22" height="8" rx="4" fill="#e8eaed"/></g>
<g filter="url(#s)"><rect x="510" y="292" width="130" height="98" rx="24" fill="#fff"/><path d="M545 345c0-17 14-31 31-31s31 14 31 31" fill="#e6f4ea"/><path d="M559 345c0-9 7-17 17-17s17 8 17 17" fill="none" stroke="#34a853" stroke-width="8" stroke-linecap="round"/><circle cx="576" cy="347" r="8" fill="#34a853"/><rect x="537" y="361" width="78" height="10" rx="5" fill="#e8eaed"/></g>
<path d="M204 157h44M472 151h44M212 339h36M472 340h38" stroke="#cbdcf8" stroke-width="5" stroke-linecap="round"/>
<circle cx="224" cy="157" r="7" fill="#4285f4"/><circle cx="496" cy="151" r="7" fill="#ea4335"/><circle cx="228" cy="339" r="7" fill="#fbbc04"/><circle cx="493" cy="340" r="7" fill="#34a853"/>
</svg>
