<svg xmlns="http://www.w3.org/2000/svg" viewBox="0 0 760 500" role="img" aria-labelledby="title desc">
<title id="title">Một tài khoản kết nối hệ sinh thái VTC</title><desc id="desc">Nhân vật hoạt hình quản lý nhiều dịch vụ bằng một tài khoản MyVTC</desc>
<defs><filter id="shadow" x="-20%" y="-20%" width="140%" height="150%"><feDropShadow dx="0" dy="14" stdDeviation="12" flood-color="#31527a" flood-opacity=".16"/></filter><linearGradient id="shirt" x1="0" y1="0" x2="1" y2="1"><stop stop-color="#4f8df7"/><stop offset="1" stop-color="#2563eb"/></linearGradient></defs>
<ellipse cx="394" cy="430" rx="248" ry="34" fill="#dbeafe" opacity=".72"/><circle cx="585" cy="106" r="46" fill="#fde68a" opacity=".78"/><circle cx="126" cy="150" r="30" fill="#bfdbfe"/><path d="M86 87c22-20 53-18 71 4" fill="none" stroke="#93c5fd" stroke-width="10" stroke-linecap="round"/>
<g filter="url(#shadow)"><rect x="303" y="78" width="302" height="314" rx="34" fill="#fff"/><rect x="326" y="103" width="256" height="42" rx="15" fill="#eff6ff"/><circle cx="351" cy="124" r="10" fill="#60a5fa"/><rect x="372" y="116" width="95" height="16" rx="8" fill="#bfdbfe"/><rect x="326" y="166" width="116" height="88" rx="22" fill="#dbeafe"/><circle cx="365" cy="202" r="21" fill="#fff"/><path d="M354 203l8 8 16-19" fill="none" stroke="#2563eb" stroke-width="7" stroke-linecap="round" stroke-linejoin="round"/><rect x="391" y="190" width="34" height="10" rx="5" fill="#60a5fa"/><rect x="391" y="211" width="25" height="8" rx="4" fill="#fff"/><rect x="462" y="166" width="120" height="88" rx="22" fill="#dcfce7"/><rect x="487" y="188" width="70" height="44" rx="12" fill="#fff"/><path d="M500 202h44M500 218h29" stroke="#22c55e" stroke-width="7" stroke-linecap="round"/><rect x="326" y="274" width="116" height="88" rx="22" fill="#fef3c7"/><circle cx="365" cy="318" r="22" fill="#fff"/><path d="M365 302v32M349 318h32" stroke="#f59e0b" stroke-width="8" stroke-linecap="round"/><rect x="391" y="306" width="34" height="10" rx="5" fill="#f59e0b"/><rect x="391" y="327" width="25" height="8" rx="4" fill="#fff"/><rect x="462" y="274" width="120" height="88" rx="22" fill="#f3e8ff"/><path d="M501 326c0-18 14-32 32-32s32 14 32 32" fill="#fff"/><path d="M516 326c0-9 7-17 17-17s17 8 17 17" fill="none" stroke="#a855f7" stroke-width="8" stroke-linecap="round"/><circle cx="533" cy="328" r="8" fill="#a855f7"/></g>
<g filter="url(#shadow)"><circle cx="220" cy="172" r="54" fill="#ffd8b5"/><path d="M171 166c4-49 90-68 105-1-22-8-38-25-46-40-15 22-34 35-59 41z" fill="#243b64"/><circle cx="202" cy="174" r="5" fill="#243b64"/><circle cx="239" cy="174" r="5" fill="#243b64"/><path d="M207 196c9 8 21 8 30 0" fill="none" stroke="#d97757" stroke-width="5" stroke-linecap="round"/><path d="M174 229c28-17 69-17 94 0l27 108H147z" fill="url(#shirt)"/><path d="M185 251l35 44 34-44" fill="#fff" opacity=".95"/><path d="M164 271c-25 21-38 52-41 88" fill="none" stroke="#ffd8b5" stroke-width="22" stroke-linecap="round"/><path d="M273 270c28 15 46 42 56 75" fill="none" stroke="#ffd8b5" stroke-width="22" stroke-linecap="round"/><rect x="96" y="342" width="226" height="25" rx="12.5" fill="#325f9c"/><rect x="124" y="332" width="174" height="18" rx="9" fill="#e8f1ff"/></g>
<g filter="url(#shadow)"><circle cx="651" cy="207" r="49" fill="#fff"/><circle cx="651" cy="190" r="15" fill="#4f8df7"/><path d="M622 228c7-21 51-21 58 0v10h-58z" fill="#4f8df7"/><circle cx="630" cy="211" r="7" fill="#22c55e"/></g>
<path d="M286 192c18-12 29-12 45-4M292 295c18 8 25 10 38 6" fill="none" stroke="#93c5fd" stroke-width="7" stroke-linecap="round" stroke-dasharray="10 13"/>
</svg>
