<svg xmlns="http://www.w3.org/2000/svg" viewBox="0 0 720 480" role="img" aria-labelledby="title desc">
<title id="title">VTC Club tích EXP và nâng hạng</title><desc id="desc">Minh họa phẳng nhiều màu về huy hiệu, điểm thưởng và voucher</desc>
<defs><filter id="s" x="-20%" y="-20%" width="140%" height="140%"><feDropShadow dx="0" dy="14" stdDeviation="16" flood-color="#1f2937" flood-opacity=".12"/></filter></defs>
<circle cx="360" cy="240" r="185" fill="#f8fbff"/><path d="M177 318c71 65 292 89 390-12" fill="none" stroke="#e8f0fe" stroke-width="26" stroke-linecap="round"/>
<g filter="url(#s)"><path d="M360 96l36 28 45-3 15 43 37 26-17 42 8 45-39 23-22 39-44-11-44 11-22-39-39-23 8-45-17-42 37-26 15-43 45 3z" fill="#fff"/><circle cx="360" cy="218" r="92" fill="#fef7e0"/><path d="M360 145l22 45 49 7-36 34 9 49-44-23-44 23 9-49-36-34 49-7z" fill="#fbbc04"/><circle cx="360" cy="218" r="28" fill="#fff" opacity=".78"/></g>
<g filter="url(#s)"><rect x="90" y="126" width="142" height="94" rx="24" fill="#fff"/><circle cx="132" cy="173" r="24" fill="#e8f0fe"/><path d="M132 157v32M116 173h32" stroke="#4285f4" stroke-width="8" stroke-linecap="round"/><rect x="172" y="151" width="38" height="11" rx="5.5" fill="#4285f4"/><rect x="172" y="173" width="28" height="9" rx="4.5" fill="#e8eaed"/></g>
<g filter="url(#s)"><rect x="488" y="112" width="148" height="104" rx="24" fill="#fff"/><path d="M515 142h92v44h-92z" fill="#fce8e6"/><path d="M529 142v44M593 142v44" stroke="#ea4335" stroke-width="6"/><circle cx="561" cy="164" r="9" fill="#ea4335"/><rect x="527" y="192" width="68" height="8" rx="4" fill="#e8eaed"/></g>
<g filter="url(#s)"><rect x="112" y="310" width="148" height="88" rx="24" fill="#fff"/><circle cx="153" cy="354" r="23" fill="#e6f4ea"/><path d="M142 354l8 8 16-18" fill="none" stroke="#34a853" stroke-width="7" stroke-linecap="round" stroke-linejoin="round"/><rect x="194" y="336" width="40" height="11" rx="5.5" fill="#34a853"/><rect x="194" y="358" width="28" height="9" rx="4.5" fill="#e8eaed"/></g>
<g filter="url(#s)"><rect x="474" y="310" width="144" height="88" rx="24" fill="#fff"/><circle cx="514" cy="354" r="23" fill="#f3e8fd"/><path d="M514 337l5 11 12 2-9 8 2 12-10-6-11 6 2-12-9-8 12-2z" fill="#a142f4"/><rect x="552" y="336" width="38" height="11" rx="5.5" fill="#a142f4"/><rect x="552" y="358" width="27" height="9" rx="4.5" fill="#e8eaed"/></g>
</svg>
